<svg width="800" height="1200" viewBox="0 0 800 1200" fill="none" xmlns="http://www.w3.org/2000/svg">
  <!-- Background -->
  <rect width="800" height="1200" fill="#f8fafc"/>
  
  <!-- Gradient overlay -->
  <defs>
    <linearGradient id="grad1" x1="0%" y1="0%" x2="100%" y2="100%">
      <stop offset="0%" style="stop-color:#3b82f6;stop-opacity:0.1" />
      <stop offset="100%" style="stop-color:#1e40af;stop-opacity:0.2" />
    </linearGradient>
  </defs>
  
  <!-- Background pattern -->
  <rect width="800" height="1200" fill="url(#grad1)"/>
  
  <!-- Decorative elements -->
  <circle cx="200" cy="300" r="80" fill="#3b82f6" opacity="0.1"/>
  <circle cx="600" cy="400" r="60" fill="#1e40af" opacity="0.1"/>
  <circle cx="150" cy="800" r="100" fill="#3b82f6" opacity="0.1"/>
  <circle cx="650" cy="900" r="70" fill="#1e40af" opacity="0.1"/>
  
  <!-- Center content area -->
  <rect x="100" y="500" width="600" height="200" rx="20" fill="white" opacity="0.9" stroke="#e2e8f0" stroke-width="2"/>
  
  <!-- Text placeholder -->
  <rect x="150" y="530" width="500" height="20" rx="10" fill="#e2e8f0"/>
  <rect x="150" y="570" width="400" height="20" rx="10" fill="#e2e8f0"/>
  <rect x="150" y="610" width="450" height="20" rx="10" fill="#e2e8f0"/>
  <rect x="150" y="650" width="350" height="20" rx="10" fill="#e2e8f0"/>
  
  <!-- Icon -->
  <g transform="translate(350, 200)">
    <rect x="-30" y="-30" width="60" height="60" rx="8" fill="#3b82f6" opacity="0.8"/>
    <path d="M-15 -15 L15 -15 L15 15 L-15 15 Z" fill="white" opacity="0.9"/>
    <path d="M-8 -8 L8 -8 L8 8 L-8 8 Z" fill="#3b82f6"/>
    <path d="M-4 -4 L4 -4 L4 4 L-4 4 Z" fill="white"/>
  </g>
  
  <!-- Bottom text -->
  <text x="400" y="1100" text-anchor="middle" font-family="Arial, sans-serif" font-size="24" fill="#64748b" font-weight="500">
    publica.now
  </text>
</svg>
